<svg version="1.2" xmlns="http://www.w3.org/2000/svg" viewBox="0 0 35 35" width="12" height="12">
	<title>attach-svg</title>
	<style>
		.s0 { fill: #000000;stroke: #000000 } 
	</style>
	<g id="SVGRepo_bgCarrier">
	</g>
	<g id="SVGRepo_tracerCarrier">
	</g>
	<g id="SVGRepo_iconCarrier">
		<path id="Layer" class="s0" d="m18 34.8c-1.5-0.1-3-0.3-4.3-0.9-1.4-0.6-2.6-1.4-3.7-2.5-1-1-1.9-2.3-2.4-3.6-0.6-1.4-0.9-2.9-0.9-4.3v-15.5c0-2.1 0.8-4 2.3-5.5 1.4-1.5 3.4-2.3 5.5-2.3 2 0 4 0.8 5.5 2.3 1.4 1.5 2.2 3.4 2.2 5.5v14.5c0.1 1.2-0.3 2.5-1.2 3.4-0.9 0.9-2.1 1.4-3.3 1.4-1.3 0-2.5-0.5-3.3-1.4-0.9-0.9-1.4-2.2-1.3-3.4v-13.2c0-0.3 0.1-0.7 0.4-0.9 0.2-0.2 0.5-0.4 0.8-0.4 0.4 0 0.7 0.2 0.9 0.4 0.3 0.2 0.4 0.6 0.4 0.9v13.2c0 0.6 0.2 1.1 0.6 1.6 0.3 0.4 0.9 0.6 1.5 0.6 0.6 0 1.1-0.2 1.5-0.6 0.4-0.5 0.6-1 0.5-1.6v-14.5c0-1.4-0.5-2.7-1.5-3.7-1-1-2.3-1.6-3.7-1.6-1.4 0-2.8 0.6-3.8 1.6-1 1-1.5 2.3-1.5 3.7v15.5c0 1.1 0.2 2.2 0.7 3.3 0.4 1.1 1.1 2.1 1.9 2.9 0.8 0.8 1.8 1.4 2.8 1.9 1.1 0.4 2.2 0.6 3.4 0.7 4.6 0 7.8-3.7 7.8-8.8v-13.8c0-0.4 0.1-0.7 0.4-0.9 0.2-0.3 0.5-0.4 0.9-0.4 0.3 0 0.6 0.1 0.8 0.4 0.3 0.2 0.4 0.5 0.4 0.9v13.8c0 6.5-4.3 11.3-10.3 11.3z"/>
	</g>
</svg>