<svg version="1.2" xmlns="http://www.w3.org/2000/svg" viewBox="0 0 442 442" width="24" height="24">
	<title>billboard-svg</title>
	<style>
		.s0 { fill: #9d261d } 
	</style>
	<g id="Layer">
		<path id="Layer" fill-rule="evenodd" class="s0" d="m442 18.3v200.2c0 5.5-4.5 10-10 10h-422c-5.5 0-10-4.5-10-10v-200.2c0-5.5 4.5-10 10-10h422c5.5 0 10 4.5 10 10zm-20 10h-402v180.2h402z"/>
		<path id="Layer" class="s0" d="m432 240.7c-5.5 0-10 4.4-10 10v7.8h-64.4v-7.8c0-5.6-4.5-10-10-10-5.5 0-10 4.4-10 10v7.8h-64.4v-7.8c0-5.6-4.5-10-10-10-5.5 0-10 4.4-10 10v7.8h-64.4v-7.8c0-5.6-4.5-10-10-10-5.5 0-10 4.4-10 10v7.8h-64.4v-7.8c0-5.6-4.5-10-10-10-5.5 0-10 4.4-10 10v7.8h-64.4v-7.8c0-5.6-4.5-10-10-10-5.5 0-10 4.4-10 10v17.8c0 5.5 4.5 10 10 10h176v145.2c0 5.5 4.5 10 10 10 5.5 0 10-4.5 10-10v-145.2h30v145.2c0 5.5 4.5 10 10 10 5.5 0 10-4.5 10-10v-145.2h176c5.5 0 10-4.5 10-10v-17.8c0-5.6-4.5-10-10-10z"/>
	</g>
</svg>