<svg version="1.2" xmlns="http://www.w3.org/2000/svg" viewBox="0 0 24 24" width="20" height="20">
	<title>cmntUn-svg</title>
	<style>
		.s0 { fill: #9d261d } 
	</style>
	<g id="SVGRepo_bgCarrier">
	</g>
	<g id="SVGRepo_tracerCarrier">
	</g>
	<g id="SVGRepo_iconCarrier">
		<g id="ðŸ”-Product-Icons">
			<g id="ic_fluent_comment_24_regular">
				<path id="ðŸŽ¨-Color" fill-rule="evenodd" class="s0" d="m5.3 18c-1.8 0-3.3-1.5-3.3-3.3v-8.4c0-1.8 1.5-3.3 3.3-3.3h13.4c1.8 0 3.3 1.5 3.3 3.3v8.4c0 1.8-1.5 3.3-3.3 3.3h-5.7l-5 3.8c-0.6 0.4-1.3 0.3-1.8-0.3q-0.2-0.3-0.2-0.8v-2.7zm7.3-1.5h6.2c1 0 1.7-0.8 1.7-1.7v-8.5c0-1-0.7-1.8-1.7-1.8h-13.5c-1 0-1.8 0.8-1.8 1.8v8.5c0 0.9 0.8 1.7 1.8 1.7h2.2v3.8z"/>
			</g>
		</g>
	</g>
</svg>