<svg version="1.2" xmlns="http://www.w3.org/2000/svg" viewBox="0 0 33 32" width="45" height="45">
	<title>home-svgrepo-com (3)-svg</title>
	<style>
		.s0 { fill: #9d261d } 
	</style>
	<g id="SVGRepo_bgCarrier">
	</g>
	<g id="SVGRepo_tracerCarrier">
	</g>
	<g id="SVGRepo_iconCarrier">
		<path id="Layer" class="s0" d="m24.5 12.6l3.6 3.3c0.4 0.4 0.3 0.7-0.3 0.7h-2.7v8.7c0 0.6-0.5 1.1-1.1 1.1h-4.7v-6.1c0-0.5-0.5-1.1-1.1-1.1h-3c-0.6 0-1.1 0.6-1.1 1.1v6.1h-4.8c-0.6 0-1.1-0.5-1.1-1.1v-8.7h-2.7c-0.6 0-0.7-0.3-0.3-0.7l10.6-9.6c0.5-0.4 1.2-0.4 1.7 0l2.4 2.1v-1.7c0-0.6 0.5-1.1 1.1-1.1h2.4c0.6 0 1.1 0.5 1.1 1.1 0 0 0 5.9 0 5.9z"/>
	</g>
</svg>