<svg version="1.2" xmlns="http://www.w3.org/2000/svg" viewBox="0 0 1280 353" width="1280" height="353">
	<title>prot-svg</title>
	<style>
		.s0 { fill: #000000 } 
	</style>
	<g id="Layer">
		<path id="Layer" fill-rule="evenodd" class="s0" d="m5.2 7.4l43.2 6.3c23.7 3.4 44.5 6.3 46.1 6.4 1.7 0.1 5-0.4 7.5-1.1 7.1-1.9 40.1-0.6 60 2.4 17.5 2.6 30.7 5.3 31.4 6.4 0.2 0.4-0.5 4.1-1.5 8.2-1.1 4.1-2.1 9.3-2.4 11.5-0.3 2.2-3.4 15.9-7 30.5-3.5 14.6-8.2 33.9-10.4 43-2.2 9.1-7.2 29.8-11.1 46-3.9 16.2-8.6 35.7-10.5 43.4-1.8 7.6-3.1 14.5-2.8 15.3 0.3 0.9 1.3 1.1 2.6 0.7 1.6-0.5 1.9-0.3 1.4 1-0.3 0.8 0 3.4 0.8 5.7 0.8 2.3 1.5 5.3 1.5 6.6 0 1.4 0.6 3.7 1.4 5.1 0.8 1.5 2.6 5.3 4 8.4 1.4 3.2 6.8 12.1 12.1 19.9 5.2 7.7 9.5 14.7 9.5 15.5 0 0.8 0.4 1.4 0.9 1.4 0.5 0 2.3 1.1 3.9 2.4 2 1.8 3.6 2.3 5.2 1.9 1.5-0.4 2.6-0.1 3.2 1.1 0.5 0.9 1.9 1.6 3.2 1.6 2.2 0 2.2-0.1 1.3-6.8-1.8-11.8-0.8-22.7 2.2-26.9 2.1-2.8 2.2-3.4 1-6.7-1.1-3.1-1.1-3.8 0.3-5.2 0.9-0.9 3.1-1.8 5-2 1.8-0.2 5.2-0.9 7.5-1.5 4.3-1.1 9.1-0.8 16.6 1.2 11.9 3.1 14.3 29.6 3.6 39.2l-3.1 2.9 2.1 2.9c1.1 1.5 2.1 3.5 2.1 4.4 0 0.8 0.9 2 2 2.7 1.1 0.7 2 1.8 2 2.5 0 2.5 2.1 2.2 8.5-0.9 7.5-3.7 8.7-6 6.1-11.4-0.9-1.9-1.6-4.1-1.6-4.9 0-0.8-0.9-2.3-2.1-3.4-2.6-2.4-4.3-9.5-2.9-12.1 0.5-1 1-4.1 1-6.7 0-6.7 3.4-13.2 8.5-16.1 8.1-4.6 22.7-1.5 27 5.9 3.3 5.6 4.6 23.6 2 27.5-0.8 1.3-1.9 4.3-2.5 6.9-0.8 3.7-0.7 5.1 0.5 7.6 2 3.7 2.7 4 19.5 8.4 19.4 5.1 18.5 4.6 21.4 12.4 1.4 3.6 2.8 8.8 3.1 11.6 0.4 2.7 2.3 14.4 4.2 26 4 23.7 4 31.5 0.3 53.5-2.7 15.6-2.8 16-4.5 16-2.9 0-2.3 21 1.1 38 0.5 2.8 1.1 0.7 3-11.5 1.3-8.3 4-23.5 6-34 3.6-18.6 3.7-19 2.1-23.6-2.3-6.4-2.2-6.9 2.2-15.7 3.8-7.6 3.8-7.8 2.9-14.2-0.6-3.6-1.1-14.4-1.2-24-0.1-20.7 0.5-22.5 9.4-27.7 15.1-8.7 14-7.7 14-13.1 0-4.3-0.4-5.2-4.2-8.8-2.4-2.3-5.8-5.1-7.5-6.3-2.7-1.8-3.3-2.9-3.3-5.8 0-2-0.5-5.3-1.2-7.4-2.2-7.6 3.5-17.2 14.1-24.1 4-2.5 5.4-2.8 13.1-2.8 8.1 0 8.8 0.2 11.3 2.7 7.2 7.6 10.9 24.1 7.2 32.4-1 2.1-2.2 3.9-2.6 3.9-1.7 0-7.7 6.1-8.3 8.5-1 3.8 1.7 7.8 7.3 10.8l5 2.8 12-6.5c19.1-10.3 23.5-13.5 23.9-17.4 0.2-2.3-0.4-4.1-2.2-6.3-1.4-1.7-2.9-4.3-3.2-5.7-0.3-1.5-0.7-3.2-0.9-3.8-0.2-0.5 0.3-5.6 0.9-11.2 1.4-11.6 3-14.6 9-17.6 4.6-2.2 15.3-2.3 19.5-0.1 1.5 0.7 4.5 3.3 6.5 5.6 3.7 4 3.8 4.4 3.2 9.3-0.8 6.8 0.2 12.6 2.2 12.6 0.8 0 3.5 2 5.9 4.5l4.3 4.6 1-2.5c0.5-1.3 1.2-5.2 1.6-8.6 0.4-3.9 1.3-6.8 2.4-7.8 4.7-4.5 4.9-6 4.9-60.2l0.1-51h-62v-84h62v-2.5c0-2.3 0.3-2.5 5-2.5 4.7 0 5 0.2 5 2.5v2.5h63v84h-63v30.4c0 28.9 0.1 30.6 1.9 31.8 3.8 2.6 4 7.4 0.9 18.8-2.3 8.5-2.8 12.6-2.8 21.7 0 7.8-0.4 11.3-1.2 11.5-0.7 0.3-1.7 3.2-2.3 6.6-1.5 8.1 0 11.5 8.6 19.8 5.6 5.4 7.7 6.7 16.9 10.1 13 4.9 19.5 6.7 21.5 6 1-0.4 1.5-2 1.5-4.6 0-3.1-0.6-4.3-2.7-5.9-2.3-1.6-2.8-2.8-2.7-6 0.2-6.5 4.1-16.6 8.5-21.5 3.2-3.8 3.8-5 3.3-7.5-0.7-3.4 1-7.2 3.2-7.2 1 0 1.3 0.7 0.8 2.4l-0.6 2.4 4-1.9c3.8-1.9 4.2-1.9 8.1-0.3 9.1 3.6 18.3 17.9 18.4 28.5 0.1 10-7.2 18.7-18.3 22l-4.4 1.3 9.2 1.2c7.2 0.9 9.8 1.6 11.7 3.4 3.5 3.3 8.2 1.5 13.4-5.5 5.2-6.8 5.6-12.5 1.5-17.5-3.3-3.8-5.7-17.4-4.8-26 0.6-4.7 1.2-6.1 4.5-9.1 5.2-5 12.4-7.3 20.3-6.5 5.3 0.5 6.5 1.1 10.3 4.7l4.2 4.2 0.5 9.1c0.9 15.2 0.7 18.7-1.5 22.3-3.7 6 0 13.2 9.1 17.8l4.8 2.4-1.9-6c-2.3-7.4-2.4-12.6-0.3-20.4 1.8-7.1 4.8-10.6 11.7-13.5 10-4.4 17.4-0.5 23.7 12.4l4.1 8.4-0.7 10-0.7 10.1 4.9 4.9c8.9 8.9 14.3 16.4 16.6 23.2 2 5.5 2.3 8.4 2.2 19.5-0.1 10.9-0.8 15.9-3.8 30.5-2.1 9.6-4.6 21.1-5.8 25.5-3 11.6-3.5 27.7-1.3 42 0.9 6.4 1.9 11.4 2.1 11.2 0.2-0.2 1.3-5.5 2.5-11.8 1.1-6.3 3.6-18.8 5.6-27.8l3.5-16.4-5.6-10.4 2.4-4.4c6.3-11.8 6.4-12 6.3-20.3 0-4.5-0.6-12.2-1.2-17.2-1.5-11.2-0.4-18.8 3.8-25.6 1.6-2.5 3.2-5.7 3.6-7 1.1-3.4 2-4.2 9.6-8.8 5.5-3.4 6.9-4.7 6.9-6.7 0-4.2-2.9-8.3-8.5-11.9-5.6-3.5-8-6.6-7.2-8.9 0.3-0.7 0.1-3.2-0.4-5.5-2-8.7 2.5-16.9 13.1-24 1.9-1.3 4.8-3.9 6.3-5.7 4.2-4.9 7.6-6.3 15.7-6.3 13 0 19 5 21 17.7 1.1 7.2 1 8.4-0.9 14-3 9-2.8 10.8 2.4 16.9 4 4.6 5.4 5.5 11.8 7.5 3.9 1.2 7.7 2.4 8.4 2.6 0.8 0.3 1.1-2.2 1-8.9 0-11.2 2-16.2 8.6-20.8 5.3-3.7 5-3.3 9.9-10.9 6.5-10 16-14.7 21.4-10.6 2.7 2.1 3.7 1.8 2.4-0.6-1.3-2.4-0.7-3.4 1.5-2.5 2.2 0.8 3.4 4.7 2.4 7.5-0.8 2-0.3 3 2.9 6.5 4.2 4.5 7.9 13 8.9 20.3 0.5 4 0.3 4.7-2.6 7.7-2.9 3-3.2 3.8-2.5 7.1l0.7 3.7 4.6-0.7c4-0.6 8.1-1.9 19.5-6.4 2.1-0.8 2.5-1.5 1.8-2.4-0.6-0.6-2.2-4.5-3.6-8.6-3.6-10.3-3.7-21.4-0.1-27.5 4.9-8.4 10-11.6 18.6-11.6 2.7 0 4.9-0.3 4.9-0.6 0-1.7-3.3-13-4-14-1.1-1.3-1.8-5.3-8.6-55.4-3-22.3-5.7-41.1-5.9-41.9-0.5-1.1-3.2-1.3-14.8-0.8-11.7 0.4-16.7 1.2-28.7 4.1-17.8 4.5-29.3 8.2-32.1 10.5-2.1 1.7-2.1 1.7 1.8 4.1 7.1 4.7 5.2 8.2-8.7 15.7-12 6.6-13.4 8.9-8 13.6 2.6 2.4 4.1 5.7 2.4 5.7-3.3 0-6.7-5.2-9.9-15-3.9-12-10.4-23.7-18.4-33.2-9.3-11.1-11.1-14.3-11.1-20 0.1-5.5 1.2-7.5 9.3-15.8 3.7-3.7 6.7-7.6 6.7-8.5 0-1-1.6-3.2-3.5-5.1-5.8-5.4-4.3-11.1 6.4-24 5-6 7.3-7.8 14.7-11.6 19.2-9.9 41.4-15 65.7-15.1 13.8 0 15.7-0.2 15.5-1.6-0.2-1 0.5-1.7 1.8-1.9 2-0.3 2.2 0.8 5.3 23 10.8 76.6 21 148.1 21.4 148.4 0.2 0.2 1.8-0.2 3.6-0.9 3.1-1.1 3.4-1 5.7 1.6 3.1 3.6 3.2 9.3 0.3 14.9-1.7 3.3-2 5.3-1.6 9.2 1 9.2 3.8 19.5 6.3 22.8 3.8 5.2 5.6 9.9 5.9 15.3 0.1 2.7 0.8 6.3 1.4 7.8 1.9 4.7 1.3 10.8-1.4 15.6-1.4 2.4-2.4 4.5-2.3 4.6 1.3 1.1 6.7 3.2 20.4 8 8.9 3.1 16.6 6.5 17.6 7.6 0.9 1 1.9 3.8 2.3 6.2 0.8 4.7 8.3 28.7 9 28.7 1.2 0 5.8-10.9 6.5-15.8 0.7-4.1 1.8-6.4 4-8.7 1.6-1.7 3-3.4 3-3.7 0-0.9-10.8-7-15-8.5-4.8-1.7-7-4.7-7-9.7 0.1-7 1.9-17.7 3.9-22.2 2.1-4.6 10.4-13.4 12.7-13.4 0.7 0 3.3-3.9 5.6-8.7 5.2-10.5 4.9-6.7 5.5-79.1l0.4-49.2h144.9v47.6c0 43.9 0.1 47.8 1.7 48.9 1.6 1.2 1.6 1.7-0.1 8.4-1.6 6.3-1.7 8-0.6 15.3 0.6 4.6 1.6 9.8 2.2 11.5 0.9 3 1.3 3.3 4.9 3.3 10 0 17.9 9.3 21 24.8 1.3 6.1 1.2 6.5-1.1 11-1.5 2.7-4.4 5.9-7 7.7-3.7 2.6-4.6 3.8-4.8 6.8-0.6 7 2.2 9.2 15.4 12.6 6.9 1.7 8.4 2.5 11.7 6.2 2 2.3 3.9 4 4.1 3.8 0.2-0.2 1.9-3.8 3.9-7.9 4.2-8.8 6-11 12.4-14.6 8.5-4.9 8.7-5.2 5.3-9-3.6-4.2-4.5-8.3-4.5-20.9 0.1-16.1 4.2-22.1 16.9-24.7 7-1.4 12.1-0.1 17.1 4.3 3.5 3.1 4.9 6.3 6 13.9 0.4 2.5 1.2 5.1 1.7 5.7 1.5 1.9 0 8.1-3.3 13.9-4.1 7.3-4.2 7.2 11 15.1 11.4 5.9 19.4 11.7 22.5 16.1 6.8 9.8 12.9 35.6 13 54.9l0.1 12.2-7.2 7.3-7.1 7.3-0.7 12c-1.1 21.1-2.6 37.8-3.5 39.5-0.5 1-3 3-5.4 4.4-3.7 2.2-4.8 3.6-6.6 8.3-3.8 10.2-4 9.2 7 32.4 14.9 31.3 17.8 38.1 21.5 50.9 6.5 22.6 8.9 39.5 5.7 40.4-0.9 0.3-6.4 1.9-12.2 3.5-15.8 4.6-27.7 5.8-26.7 2.7 0.2-0.6 2.9-2.9 6-5 5-3.5 5.7-4.4 5.7-7.3 0-1.8 0.5-4.1 1.1-5.1 0.9-1.5 0.5-2.4-2.4-5.3-2.7-2.7-3.7-4.7-4.3-8.4-0.4-2.7-2-8.1-3.6-12-3.7-9-16.3-33-19.5-37.4l-2.6-3.3-1.9 3c-2.3 3.7-9.6 22.9-10.7 28.5-0.5 2.3-2.7 13-4.9 23.9-2.2 10.8-4.3 20.1-4.6 20.7-0.4 0.6-1.3 1.1-2.1 1.1-1.5 0-2.5 2.2-2.5 5.8 0 1.5-0.4 3.3-0.8 4-2.2 3.4-37.9 10.1-39.6 7.4-0.7-1.1 3.4-4.9 9.8-9.2 8.6-5.8 10.3-8.3 6.5-9.5-1.6-0.5-1.9-1.2-1.5-2.8 1.3-4.7 7.6-39.1 10-54.7 1.7-10.6 4-21 6.6-29 4.3-13.2 10-34.1 10-36.6 0-0.9-1.1-1.4-3.4-1.4-2 0-3.6-0.6-3.9-1.4-0.5-1.3-3.5-18.8-6.8-40-1.2-7.1-1.8-8.1-7.9-11.9-2.6-1.7-3.6-3.1-3.8-5.5-0.4-3.7-1.4-3.9-7.4-1.3-6 2.5-7 4-5.8 8.2 3.2 11 6.1 27.5 7.5 42.4 2.4 26.4 4.5 57.7 3.9 58.6-0.8 1.3-9.2 4.8-16.1 6.6-3.7 1-6.5 2.4-6.8 3.3-2.6 8.9-8.8 50.5-7.9 54.3 0.3 1.5 2.8 5.6 5.5 8.9 4.6 5.8 6.8 10.2 5.6 11.4-0.3 0.3-3 0.8-6.1 1.1-6.2 0.6-6.8 1.1-8.6 6.8-2.6 8.2-8.9 13.5-12.5 10.5-2-1.6-1.9-8.3 0.1-18.5 1.9-9.7 1.5-14.2-3.1-33.6-1.9-8-4.3-19.6-5.4-25.8-2.6-14.4-3-15.1-8.6-15.1h-4.5v6.5c0 3.5 0.7 10 1.6 14.3 1.5 7.5 1.5 8.3-0.5 16.4l-2 8.6 2.5 5.4c1.4 2.9 4.3 8 6.4 11.3 4.9 7.5 6.5 13.8 4.1 15.9-6.9 6.3-18.9 3.9-22.9-4.6-1.1-2.4-3.2-5.4-4.7-6.8-2.4-2.2-2.8-2.3-3.8-0.9-0.7 0.8-2 1.8-2.9 2.2q-1.8 0.6-1.8 3.9c0 1.8-0.4 3.8-0.8 4.5-1.2 1.8-11 4.1-21.2 4.8-5.2 0.4-10.2 1.1-11.1 1.6-0.9 0.5-2.6 2.4-3.8 4.4-3.6 6.1-9.2 6.4-11.2 0.6-0.6-1.6-1.7-2.7-2.7-2.7-13.4 0-15.4-3.6-9.4-16.5 1.7-3.6 3.4-7.8 3.7-9.2 0.4-1.5 1.1-3 1.6-3.3 1.8-1.1 0.8-4-9.2-27.3-12.2-28.4-13.4-30.7-15.8-32-2.9-1.6-24.7-3.4-26.9-2.2-1.2 0.6-2.9 5-5.5 14.4-4.2 15.4-4.6 23.1-2.6 50.4 0.9 11.8 0.9 15.6 0 16.7-1.4 1.6-0.4 4.3 2.4 6.6 1.9 1.6 5.5 8.3 5.5 10.3 0 0.8-1.3 2-2.8 2.6-5.4 2.3-26.7 1.3-28.4-1.2-0.3-0.6-1-3.7-1.3-6.9-0.4-3.2-0.8-5.8-1-5.8-0.1 0-1.9 0.7-4 1.5-2.2 1-5.8 1.5-8.8 1.3l-5.2-0.3-1 5c-1.1 4.9-1.2 5-4.4 4.7-2-0.2-4 0.3-5.1 1.3-1.4 1.3-3.8 1.5-13.1 1.3l-11.4-0.3-0.3-3.3c-0.3-2.8 0.4-3.9 5.2-8.6 6-5.7 6.5-7.3 4-11.2-1.3-1.9-1.5-3.8-1-9.2 0.6-5.8 0.3-7.5-1.9-12.9-1.6-3.9-2.5-8.2-2.5-11.5 0-2.9-0.7-7.8-1.5-10.8-1-3.5-1.3-7.4-0.9-10.6 0.4-3.2 0.2-6-0.6-7.4-0.7-1.2-2.3-10-3.5-19.5-2-14.7-4-24.6-7.1-35.4-0.5-1.8-2 1.9-6 15.5-2.9 9.9-5.4 19-5.5 20.4-0.1 1.4 1.5 6.1 3.6 10.5 2.1 4.4 7.5 18.1 12.2 30.5 6.8 18.4 8.3 23.2 7.8 26.1-0.4 2.1 0 6.2 0.9 9.5 1.8 6.7 1.4 7.5-5.5 9.6-3.5 1-3.7 1.3-3.2 4.3 0.3 2.1-0.1 4.1-1.1 5.7l-1.6 2.5-27 0.6c-25.2 0.5-27.1 0.7-29.9 2.6-1.6 1.2-3.4 2.1-3.9 2.1-0.6 0-2.1 1.4-3.3 3.1-2.4 3.5-7.8 6.2-15.3 7.9-8.3 1.8-17.6-1-17.6-5.5 0-0.3 1.9-2.6 4.3-5.2 4-4.4 4.1-4.6 1.5-3.9-5.2 1.2-14.6 1.9-18.3 1.2-5.2-1-4.3-3.3 3.4-8.3 3.5-2.3 7.4-5.2 8.7-6.4l2.4-2.2-3-1.9c-1.7-1-3-2-3-2.4 0-0.3 1.3-5.2 2.9-10.8 1.6-5.5 3.9-14.6 5.1-20.1 1.1-5.5 2.3-10.9 2.5-12 0.7-3.3-3.3-26.8-6.1-35.7-1.4-4.6-2.7-8.4-2.8-8.5-0.1-0.1-2.2 0.3-4.8 0.8l-4.6 1-0.7 8.7c-0.3 4.8-1 20.5-1.5 35-0.5 15.6-1.3 26.8-1.9 27.6-0.6 0.7-0.8 3.3-0.5 6.2l0.6 4.9-3.8 1.3c-2.2 0.8-5.6 1.6-7.7 1.9-3 0.4-4 1.1-5.3 3.9-2.4 5.1-7 8.6-10.8 8.2-2.5-0.2-3.2-0.8-3.4-3.1-0.3-2.7-0.3-2.7-6-2-10 1.4-15.2 1-16.8-1.2-2.9-3.9-1.8-5.2 8.2-10.2 10.7-5.3 15-9.6 16.6-16.5 0.7-3.3 0.3-7-1.8-17.7-1.5-7.5-3.6-20.1-4.8-28.1l-2.1-14.4-9-1.8c-4.9-1-11-2.3-13.4-2.9l-4.4-1.2 0.5-22 0.6-21.9-4.7 0.6c-10.9 1.5-10.1 0.7-10.1 9.9 0 10.2 2.4 33.3 4.7 45.2 2.1 10.9 2.3 27.4 0.6 61.3-1.1 21.9-1.4 24.6-3.3 26.9-1.1 1.4-2 3.7-2 5.2 0 1.4-0.4 3.1-0.8 3.7-1.3 2.2-8.6 3.3-25.9 4-16.3 0.6-17.3 0.6-18-1.2-0.4-1-2.1-3-3.7-4.4-6.9-5.6-7.6-6.8-7.5-11.2 0-2.4-0.4-7.2-1-10.8-1.2-7.4-0.7-16.9 1.6-34.8 1.4-10.7 1.5-14.9 0.4-32-2-31.9-6.8-72.1-9-74.5-1-1-3.4 78.6-2.6 87.4 0.4 4.1 1.8 13.2 3.2 20.3 2.2 11.2 2.4 14.7 1.9 25-0.3 6.7-0.6 14.7-0.5 17.9 0 5.1-0.2 5.8-2.4 6.6-1.4 0.5-2.7 2.1-3.1 3.4-0.8 3.2-2.4 3.8-12.8 4.4l-8.7 0.6-1.1-2.9c-0.8-2-0.8-3.5-0.1-5.2 1.7-3.7 1.3-4.2-2.9-4-4.1 0.1-4.1 0.2-5.4 6-0.4 1.9-1.4 2.8-3.8 3.4-1.8 0.5-15 0.7-29.3 0.5l-26-0.2-2.2-2.5c-2.5-2.7-3-6.8-1-8.1 0.6-0.4 4.6-0.8 8.7-0.8 9.4-0.1 13.5-2.1 15.9-7.6 0.9-2.1 2.3-3.9 3.1-3.9 1.2 0 1.5-0.9 1.2-3.8-0.2-2-1-4.4-1.7-5.2-0.6-0.8-1.7-6.9-2.4-13.5-1.8-19.4-9.2-53.7-17.9-83.7-9-30.8-11.2-43.2-11.2-63.9 0-7.1-0.4-12.9-0.8-12.9-0.5 0-1.2 6.6-1.5 14.7-0.8 17-2.8 31.6-4.9 35.8-0.8 1.5-3.9 4.2-6.9 6-6.3 3.7-9.4 8.4-10.2 15.7-0.7 5.8 1 10.9 13.3 38.8 4 9.1 10.7 25.5 14.8 36.5 7.3 19.4 7.5 20.2 7.4 28.9 0 9.8-0.7 11.2-6.3 12.6-1.9 0.5-7.2 2.2-11.9 3.9-15.2 5.4-26.5 5.4-36-0.2-3-1.7-8-4.1-11-5.2l-5.5-2 0.1-6c0-3.3-0.3-6.2-0.7-6.5-0.4-0.3-1.1-4.3-1.6-9l-0.9-8.5-2.2 9.1c-1.2 5.1-2.5 11.4-2.8 14-0.3 2.7-1.5 6.1-2.6 7.7-1 1.5-2.2 5-2.5 7.7-0.3 2.8-1.1 5.4-1.7 5.9-1.4 1.2-17.8 4.9-26.9 6-6.9 0.9-11.8 0.3-12.4-1.6-0.2-0.5 3.4-3.7 7.9-7 7.7-5.7 12.9-10.3 11.5-10.3-1 0-7.9 4-10.6 6.1-1.8 1.5-3.9 1.9-9 1.8-9.6-0.1-11.5-0.9-11.9-4.5-0.2-2.4 0.9-4.6 5.8-10.9 5.5-7.1 5.9-8.1 4.5-9.1-1.5-1.1-1.6-4.9-1.3-39.3 0.3-43.3 1.4-39-8.4-34.9-5.3 2.3-4.5 0.1-9.4 25.3-1.4 7.7-2.7 17.7-2.8 22.1l-0.1 8.1 4.8 7c2.6 3.8 5 8.6 5.4 10.6 0.5 3.2 0.3 3.8-1.8 4.5-1.3 0.5-3.9 0.5-5.9 0.1-1.9-0.4-3.8-0.5-4.1-0.1-0.4 0.4-1.4 3.3-2.3 6.4-3.2 11.4-11.2 17.9-14.3 11.8-1.7-3.3-1.6-7.2 0.2-16.7 0.8-4.3 1.5-9.6 1.5-11.8 0-3.8-8.4-55.2-9.8-60.5-0.6-2-1.7-2.6-6.2-3.5-3-0.6-6.7-1.4-8.2-1.8l-2.7-0.7-0.4 31.2c-0.3 29.9-1.3 40.7-3.8 43.3-1.7 1.7-0.9 4.1 2.2 7.1 3.6 3.3 6.2 8.6 5.3 10.8-0.3 0.8-1.6 1.8-2.7 2.2-1.2 0.3-3.3 1.3-4.6 2.1-1.5 1-4.8 1.5-9.7 1.5-14.1-0.1-12.7 0.4-12.2-5 0.6-6.2-0.9-16-2.7-17.9-0.8-0.7-2.4-4.3-3.5-7.9-2.5-8.2-4.3-44.1-3.4-66.9l0.6-15-7.1-16.9c-11.3-27-10.5-27.7-11.1 10.4-0.7 42.9 0.1 54.5 4.6 71.9 3 11.5 3.4 14.5 2.8 19.9-0.3 3.5-1.3 7-2.2 7.8-2.1 2.1-3.3 10.8-2.3 15.6 0.8 3.6 0.7 3.8-1.5 3.8-1.6 0-2.8 0.9-3.8 2.8-2.7 5.2-5.3 6.7-11.9 6.7-3.4 0-7.2 0.6-8.4 1.3-1.3 0.7-6.1 1.2-12.1 1.2-9 0-11.6-0.5-20.1-3.5-2.2-0.8 2.7-5.5 5.8-5.5 1.4 0 5.5-1.7 9.1-3.8 5.6-3.3 6.5-4.2 6.2-6.4-0.2-1.6 0.7-3.7 2.3-5.7l2.7-3.1h-2.4c-1.2 0-2.8-0.4-3.4-0.8-1.5-1-11.6-20.5-14.4-27.7-1.3-3.3-2.6-6.3-3-6.7-0.3-0.5-1.2 4.2-1.8 10.4-0.7 6.1-2.2 14.3-3.3 18.2-1.2 3.9-2 8.7-2 10.7 0.1 2.4-0.8 5.4-2.7 8.5l-2.8 4.9h-6c-5.4 0-5.9-0.2-6.2-2.3-0.4-2.7-2.2-2.4-9 1.5-5.3 3-15.7 3.4-24.5 0.8-4.9-1.4-5.6-1.9-4.8-3.4 0.6-1.1 3.8-2.4 8.8-3.7 8.8-2.2 13.8-5.7 14.8-10.5 0.4-1.7 1.8-4 3.1-5.2 2.3-2 2.3-2.1 0.4-3.4-2.4-1.7-2.5-5.1-0.5-10 1.4-3.4 1.4-5.2-0.6-21.4-1.9-16.4-2-19.6-1.1-46 0.6-15.6 0.8-29.6 0.5-31.1-0.5-2.6-0.6-2.6-2.9-1.1-2.7 1.7-7.6 1.2-10.7-1.1-1.6-1.2-1.7-1.8-0.7-3.7 0.7-1.2 1-3.9 0.7-6.2-0.4-2.5 0-5.5 1.1-8.1 0.8-2.2 1.1-4.1 0.6-4.3-3.4-1.2-3.7-2.4-5-19.9-1.3-17.6-1.9-22.9-4.6-38.9l-1.3-8-0.3 7c-0.2 3.8 0.2 12.2 0.8 18.5 0.6 6.3 1.4 18.1 1.7 26.2 0.6 13.5 0.4 15-1.2 16.8-2.6 2.9-3.4 15.5-3.4 58.6-0.1 43.3-2.6 87.4-5.2 88.9-2.1 1.3-0.7 5.4 3.6 10.4 5.6 6.6 7 9 5.7 10.3-1.2 1.2-16.5-0.7-24.3-3.1-8.3-2.6-9.9-4.3-9.9-10.2 0-2.9-0.8-6.4-2-8.7-2-3.7-2-4.6-0.9-33.3 0.6-16.2 0.8-33.2 0.4-37.9-0.7-10.4-5.6-36.3-6.7-35.2-1.1 1.1-3.6 16.9-4.8 30.1-1 11 0.2 66.5 1.6 73.3 0.3 1.6-0.1 3.6-1 5-0.8 1.3-1.8 4.7-2.2 7.5l-0.7 5.3-6.6 2.1c-8.9 2.7-25.2 5.3-28.5 4.5-4.8-1.2-3.1-4 5.7-9.1 3.1-1.8 4.9-3.6 5.4-5.3 0.3-1.5 1.3-3.7 2.1-5 1.4-2.2 1.3-2.5-1.6-5.2-3.1-2.8-3.2-3.2-3.2-11.2 0-4.6-0.8-14.6-1.6-22.3-1.1-9.7-1.8-27.7-2.1-58.2l-0.5-44.1-5.3 0.5c-4.9 0.5-5.4 0.4-7-2.1-2.1-3.2-1.7-11.1 1.5-29.6 2.8-15.9 2.7-17.6-0.8-18.3-3.1-0.6-8-8.2-17.7-27.6-5.1-10.2-5.6-11.8-4.9-15.5 1-5.9 6.6-21.7 12.8-35.9 2.9-6.7 6.2-14.4 7.1-17 2.2-5.9 2.9-6.4 19.2-13.4 7-3.1 14.7-6.9 17-8.5 3.9-2.6 4.3-3.3 4.3-7 0-2.9-0.9-5.6-3.1-9-5.5-8.5-5-13.6 2.8-29.6 3.4-6.9 5.8-8.4 14.4-9l7-0.5-0.5-7.8c-0.4-7.4 0.6-11.1 2-7.5 0.3 0.9 1 1.4 1.4 1.1 0.7-0.4 2.3-6.4 2.5-9.1 0-0.6 0.6-2.2 1.3-3.5 0.6-1.3 3.9-12.2 7.2-24.2 3.3-11.9 8.7-31.4 12-43.2 3.3-11.9 6-21.7 6-21.9 0-0.2-7.3-0.3-16.2-0.2-21.1 0-31.4-2.3-45.5-10.2-4.8-2.7-4.9-2.7-26.3-2.8-27.6-0.1-43.5-2.6-67.7-10.5-9-3-9.3-3.2-10.2-6.7-5.4-20.4-3.7-34.4 6.3-51.6 3.5-6 4.1-7.9 4.1-12.8 0-5-0.5-6.3-4.1-11.5zm1099.7 219.6h-107.5l-1.8 4.2c-1 2.4-3.3 7.7-5.1 11.8-1.8 4.1-3.9 9.4-4.6 11.6-1.1 4.2-1.1 4.2 2.9 7.9 6.5 5.8 9.7 13.3 9.9 23.4 0.2 8 0.3 8.5 3 10.3 2 1.3 3.8 1.7 6.5 1.2 4.4-0.7 17.8 1.1 23 3.1 3.1 1.2 3.9 1.2 4.5 0.1 0.4-0.7 1.8-1.8 2.9-2.4 3.1-1.7 4.2-11.1 1.9-16.7-1-2.3-1.9-8-2.2-13.5-0.5-8.3-0.3-10.1 1.5-13.5 3.6-7.1 8.8-10.5 16-10.5 9 0 14.2 3.4 16.7 11.1 0.9 2.6 2.5 5.9 3.6 7.3 1.8 2.3 2 3.6 1.5 13.8-0.6 11.8 0.4 15.8 4 15.8 0.8 0 3.2 1.8 5.1 4 2 2.2 4.1 4 4.6 4 0.5 0 4.2-1.6 8.3-3.7l7.4-3.6v-8.6c0-7.3 0.4-9.2 2.4-12.6 2.3-3.8 2.4-4.5 1.9-16.5-0.5-10.4-0.9-13.2-2.8-16.5-1.3-2.2-2.6-5.7-2.9-7.8zm-955.7 54.1c-0.6-1.1-1.3-0.6-3 2.1-3 4.8-2.8 6.3 1.1 9.1 2.9 2.3 11 6.7 12.1 6.7 0.2 0-1.8-3.7-4.5-8.3-2.7-4.5-5.2-8.8-5.7-9.6zm333.8 12.8c0 0.5 0.7 1.2 1.6 1.5 1.4 0.5 1.5 0.4 0.4-0.9-1.4-1.7-2-1.9-2-0.6zm635.4 21.2c-2.8 3-13.5 8.9-16.1 8.9-0.8 0-1.3 1.5-1.3 4 0 2.2 0.4 4 0.9 4 1.4 0 15.4-9.5 17.8-12.1 1.2-1.3 2.5-3.6 2.8-5.2 0.9-3.6-0.4-3.4-4.1 0.4zm-610.9 4.5c-1.3-3-1.3-3-0.8 1.9 0.4 3.3 1.6 6.2 3.4 8.5 1.6 1.9 4.2 6 5.8 9 3.3 6 3.7 5.4 2-3.6-0.9-5-1.7-6.4-5-9.3-2.2-1.8-4.6-4.7-5.4-6.5zm-415.8 29.7c-0.5-0.4-3.7 7.6-5.1 12.7-0.4 1.4-1.2 3.5-1.8 4.7-1.2 2.5 0.4 7.9 2.1 6.9 0.5-0.3 1.9-5.8 3.1-12.2 1.2-6.4 1.9-11.8 1.7-12.1zm1000.9 33.9c-4.3 14.5-4.7 16.4-4.5 25 0.2 6.3 0.9 10.6 2.1 13.3 1 2.2 1.8 5.5 1.8 7.2 0 6.4 1.8 3.2 3.5-6.2 1.7-9.3 1.7-9.4-0.4-12.8-2.8-4.6-2.7-7.2 0.9-16.1 2.6-6.4 3-8.8 3.1-17.1 0.1-14.9-0.2-14.6-6.5 6.7zm67.1-9.6c-0.8 1.4-3.7 11.6-3.7 13.1 0 1.1 0.6 1 3-0.2 2.7-1.4 3-2 3-6.3 0-4.6-1.3-8.2-2.3-6.6zm-149.7 13.6c-2.3 5.5-3.6 10.4-3.8 14.6-0.6 8.2 0.8 9.7 4.2 4.6 2.1-3.2 2.6-5.5 3.1-13.4 0.3-5.2 0.8-10.5 1.1-11.8 1-4.9-1.4-1.8-4.6 6zm1 44.7c-1.1 2.2-1.2 17.1 0 27.1 0.6 5.7 0.7 4.9 0.9-6.5 0.1-7.2 0.6-15.1 1-17.8 0.8-4.9-0.1-6.2-1.9-2.8zm-104.4 31.4c-1-1-0.7 9.2 0.9 27.2 0.8 9.3 1.5 19.5 1.5 22.6 0 3 0.9 8.9 1.9 13 2.4 9.4 5.4 32.1 4.8 36.3-0.2 1.7 0.1 4.7 0.8 6.6 1.5 4.3 0.9 34.7-0.8 36.8-0.5 0.7-0.8 1.4-0.5 1.7 0.9 1 14-13.3 14.2-15.6 0.2-1.3 0.6-3.3 1-4.5 0.4-1.4 0-2.6-1.4-3.9-1.7-1.5-2-3.1-2-10.3 0-5.4-0.5-9.3-1.4-11-0.8-1.5-2-7.4-2.6-13.2-0.5-5.8-1.7-12.3-2.4-14.5-0.8-2.2-1.9-7.6-2.5-12-2.5-18-6.2-39.6-8.5-48.8-1.3-5.4-2.7-10.1-3-10.4zm-461.9 12.4c-0.8 1.4-13.6 49.6-14.2 53.3-0.3 1.9-0.3 3-0.1 2.5 0.7-1.5 12.5-44 14.1-50.8 1.2-5.3 1.3-6.8 0.2-5zm40 76.6c-0.3 0.8-0.9 7.9-1.3 15.8-0.4 8.6-1.1 14.7-1.8 15.1-1.4 0.9 5.2 7.7 12.2 12.6 5.2 3.5 5.4 3.6 6.8 1.7 0.8-1 1.4-3 1.4-4.4 0-1.4 0.3-3.6 0.6-4.9 0.5-1.5 0.2-2.2-0.9-2.2-2.2 0-3.6-2.2-5.2-8.1-1.9-7.5-11.1-27.3-11.8-25.6zm367.3 25l-2.8-5.7-0.7 5.4c-0.4 3-1.1 6-1.6 6.6-0.5 0.6-1.2 3.2-1.5 5.8-0.6 3.8-0.4 4.5 0.8 4.1 1-0.4 1.9 0.6 3.1 3.5 0.9 2.3 2.2 4 3.1 4 1.7 0 3.6-2.9 3.6-5.7 0-1 0.7-3.1 1.5-4.7 1.4-2.7 1.4-3.1-0.6-5.2-1.2-1.3-3.4-4.9-4.9-8.1zm196.5 15.8l-4.1-0.1c-4.1 0-5.6 1.2-4.7 3.7 0.7 1.9 2.5 1.6 5.8-1.2z"/>
	</g>
</svg>