<?xml version='1.0' encoding='iso-8859-1'?>
<!DOCTYPE svg PUBLIC '-//W3C//DTD SVG 1.1//EN' 'http://www.w3.org/Graphics/SVG/1.1/DTD/svg11.dtd'>
<!-- Uploaded to: SVG Repo, www.svgrepo.com, Generator: SVG Repo Mixer Tools -->
<svg fill="#9d261d" height="50px" width="50px" version="1.1" xmlns="http://www.w3.org/2000/svg" viewBox="0 0 297 297" xmlns:xlink="http://www.w3.org/1999/xlink" enable-background="new 0 0 297 297">
  <g>
    <path d="M90.282,86.4V34.654c0-7.369-8.053-13.595-17.582-13.595s-17.582,6.226-17.582,13.595v64.58   C64.813,91.049,78.06,86.4,90.282,86.4z"/>
    <path d="m226.808,147.419c-17.018,0-31.133-11.157-33.447-25.615-5.199,2.882-11.342,4.556-17.922,4.556h-6.656c-2.264,9.085-8.389,16.647-16.518,20.837 10.689,9.518 17.473,23.558 17.473,39.204v13.402c0,4.476-3.627,8.104-8.104,8.104-4.475,0-8.104-3.628-8.104-8.104v-13.403c0-19.661-15.355-35.657-34.231-35.657h-27.517c-4.477,0-8.104-3.628-8.104-8.104 0-4.476 3.627-8.104 8.104-8.104h45.863c8.76,0 15.885-7.161 15.885-15.965 0-8.803-7.125-15.964-15.885-15.964h-48.332c-19.553,0-36.703,16.662-36.703,35.657v40.479c0,19.661 15.357,35.657 34.232,35.657h4.939c4.475,0 8.103,3.628 8.103,8.104s-3.629,8.104-8.103,8.104h-3.539v52.501c0,7.66 6.232,13.892 13.892,13.892h98.629c7.66,0 13.891-6.231 13.891-13.892v-55.253c-5.082,1.775-10.518,2.752-16.176,2.752h-4.938c-4.477,0-8.104-3.628-8.104-8.104s3.627-8.104 8.104-8.104h4.938c18.877,0 34.234-15.996 34.234-35.657v-31.79c-1.918,0.302-3.889,0.467-5.904,0.467z"/>
    <path d="m175.439,21.06c-9.531,0-17.58,6.226-17.58,13.595v58.951c5.145,4.195 8.973,9.953 10.756,16.548h6.824c9.531,0 17.582-6.226 17.582-13.596v-61.904c-0.001-7.369-8.051-13.594-17.582-13.594z"/>
    <path d="m141.651,86.4v-72.805c0-7.369-8.05-13.595-17.582-13.595-9.529,0-17.58,6.226-17.58,13.595v72.805c0,0 33.848-0.165 35.162,0z"/>
    <path d="m226.808,42.119c-9.529,0-17.58,6.226-17.58,13.596v40.843 21.06c0,7.37 8.051,13.596 17.58,13.596 9.531,0 17.582-6.226 17.582-13.596v-61.903c0-7.37-8.051-13.596-17.582-13.596z"/>
  </g>
</svg>